<svg width="1024" height="1024" xmlns="http://www.w3.org/2000/svg" style="vector-effect: non-scaling-stroke;" stroke="null">

 <g stroke="null">
  <title stroke="null">Layer 1</title>
  <ellipse stroke="#242f4b" ry="500" rx="500" id="svg_9" cy="512.00002" cx="512" stroke-width="0.25" fill="#ffffff"/>
  <path stroke="#242f4b" id="svg_3" stroke-linejoin="round" stroke-width="0.25" fill-rule="evenodd" fill="#ce0202" d="m548.69926,73.90023c23.11201,-18.06586 32.13801,-5.34533 56.13895,0.67662c51.1473,12.92352 81.98611,4.93936 114.39763,52.70902c15.18008,-23.00522 56.20733,16.57729 68.92577,30.38042c49.23269,53.79162 109.81626,108.93648 134.43261,179.37305c-15.24846,3.72143 -30.42854,7.3752 -45.677,11.09664c-17.3682,-23.41119 -22.49661,-54.19759 -38.63399,-77.67645c-6.35922,-9.26975 -23.59067,-16.44197 -25.02662,-29.09484c-0.88892,-8.32248 4.64975,-12.7882 8.6841,-19.35145c-22.70174,-9.74339 -26.94122,-28.28289 -47.5916,-8.72845c-49.98486,-63.12903 -170.87848,-110.01908 -253.00134,-108.46284c-9.91492,0.20299 -17.84685,4.87169 -27.48825,5.27767c-14.42791,0.60896 -25.57365,-3.85676 -40.68535,0.20299c-31.38584,8.32248 -63.86574,16.03599 -94.84131,28.14756c-19.21443,7.57819 -31.31746,20.7047 -48.95918,11.90858c-11.8979,27.87691 -38.08696,37.14666 -58.5322,57.7837c-42.4632,42.96563 -83.35369,95.67465 -106.39732,151.76679c-11.62439,28.0799 -19.6247,91.95322 -41.71103,105.68869c19.89821,15.02106 17.84685,62.85838 19.48794,87.96113c2.59839,38.29692 18.6674,84.71334 34.94154,120.16844c31.31746,68.4067 77.74663,122.06299 138.67209,167.3968c19.07767,14.27677 41.43752,21.7873 59.48951,37.21433c-5.4703,17.59223 -9.50465,26.72665 -25.43689,36.40238c-60.37843,-34.3725 -100.58513,-57.98669 -146.19375,-111.64298c-5.19678,-6.08962 -13.12872,-9.81105 -17.16306,-16.98327c-3.62407,-6.49559 -2.73515,-14.54742 -6.49598,-20.7047c-16.88955,-27.47094 -70.08821,-50.34083 -31.24908,-90.05867c-45.33511,-7.17222 -16.88955,-17.9982 -24.61635,-44.18355c-4.23948,-14.41209 -18.80415,-16.3743 -25.64203,-28.75652c-8.27383,-15.08872 -3.35056,-32.20731 -6.15409,-48.51395c-8.27383,-47.90499 0.54703,-70.0306 6.70112,-115.5674c1.64109,-12.72053 -2.05136,-27.06496 2.2565,-39.31186c3.82921,-10.82599 16.54766,-16.23898 18.87253,-28.68886c2.11974,-11.09664 -1.2992,-21.7873 0.82054,-32.95159c4.99165,-25.98237 41.64265,-82.54814 60.72032,-102.57621c7.04301,-7.44287 58.46382,-57.58071 62.90844,-59.47526c6.4276,-2.77416 16.27414,-1.0826 23.11201,-0.67662c-1.98298,-50.54382 30.63368,-9.20209 53.33542,-54.12993c27.76177,-1.48857 34.39451,-30.44808 62.97682,-14.27677c2.11974,-9.47274 2.32488,-19.68976 10.05168,-26.65899c12.8552,-11.63793 27.89853,-2.84182 41.71103,-6.63092c35.55695,-9.74339 104.75623,-30.7864 132.8599,0.94727zm82.05449,22.73457c-0.9573,1.21792 -1.9146,2.36818 -2.87191,3.58611c0.20514,2.23286 0.34189,4.53338 0.54703,6.76624c0.75217,1.6239 1.57271,3.18013 2.32488,4.80403c1.16244,-1.6239 2.32488,-3.18013 3.48732,-4.80403c1.16244,-1.89455 2.2565,-3.7891 3.35056,-5.68364c0.20514,-0.33831 0.41027,-0.74429 0.61541,-1.0826c-0.20514,-0.40597 -0.41027,-0.81195 -0.61541,-1.28559c-2.2565,-0.74429 -4.58138,-1.55624 -6.83787,-2.30052zm-147.01429,35.9964c21.19741,-3.18013 49.71135,-7.03689 70.70362,-0.81195c6.01733,1.82689 10.39357,8.59313 16.47928,9.60806c6.83787,1.15026 12.03466,-3.99208 19.00929,-4.12741c19.48794,-0.27065 36.71938,10.69066 48.75404,23.81717c-6.70112,4.05974 -4.23948,7.03689 -13.1971,7.9165c-12.78682,1.35325 -32.00125,-12.51755 -44.7197,-15.2917c-26.59933,-5.81897 -55.6603,-6.56325 -82.60152,-9.67572c-3.69245,-1.15026 -7.31653,-2.30052 -11.00898,-3.45078c-1.16244,-2.7065 -2.2565,-5.34533 -3.41894,-7.98416zm-34.12099,5.61598c0,3.45078 -0.06838,6.96923 -0.06838,10.48767c-40.82211,14.75041 -81.64422,29.50081 -122.39795,44.25122c-4.58138,-0.47364 -9.16275,-0.94727 -13.67575,-1.35325c33.09531,-30.71873 90.73859,-53.65629 136.14207,-53.38564zm239.73587,52.97967c-23.11201,-2.84182 -30.97557,-7.44287 -33.30045,-30.10977c22.01795,1.0826 31.93287,8.25481 33.30045,30.10977zm0,0c7.79518,-1.82689 15.65873,-3.72143 23.45391,-5.61598c18.94091,18.87781 37.81344,37.82329 56.75436,56.7011c-3.35056,0.60896 -5.40192,5.34533 -8.82086,5.21001c-6.97463,-0.33831 -65.91711,-48.2433 -71.38741,-56.29513zm-334.78232,535.48032c-4.03435,-2.43585 -8.13707,-4.93936 -12.23979,-7.3752c16.34252,-57.51305 32.68504,-115.0261 49.02756,-172.53915c-36.24073,-35.25212 -74.9431,-67.45942 -112.8933,-101.29063c-16.34252,-14.61508 -36.85614,-18.87781 -37.47155,-42.55966c11.62439,0.13532 23.11201,4.33039 34.25775,4.26273c29.06097,-0.13532 66.53252,-20.97535 88.82399,6.22494c14.35954,-21.51665 49.98486,-14.88573 75.21662,-17.72755c31.5226,-56.09214 34.66802,-134.30989 75.21662,-183.77111c25.095,60.76084 50.12162,121.52169 75.21662,182.28253c14.56467,1.6239 31.86449,-0.47364 46.01889,2.97715c5.53868,1.35325 9.50465,7.17222 15.24846,7.3752c4.1711,0.13532 8.95762,-4.60104 14.01764,-4.66871c8.13707,0 14.1544,5.68364 21.60768,6.22494c19.69308,1.48857 27.89853,-5.41299 46.70268,6.69858c20.51362,-13.12651 39.11264,-15.49469 60.10491,-1.35325c-51.35243,45.13083 -102.70487,90.19399 -154.0573,135.32482c10.18843,42.62732 52.03622,158.12705 46.08727,192.49956c-19.69308,-5.21001 -29.47124,-17.38924 -46.08727,-28.68886c-39.04426,-26.456 -112.34627,-47.29603 -124.85958,-96.68959c-0.9573,5.00702 -1.16244,15.56235 -4.1711,19.48677c-4.71813,6.22494 -12.71845,5.27767 -19.07767,8.79611c-20.85552,11.50261 -38.9075,30.58341 -59.42113,43.23628c-10.12005,6.22494 -22.15471,8.32248 -32.06963,14.95339c-16.61603,11.23196 -24.68473,22.05795 -45.19835,26.32068zm-97.02943,-488.99624c3.96597,2.63883 8.00031,5.34533 12.03466,7.98416c-38.49723,51.89707 -80.07151,100.20803 -93.95239,165.90823c-4.78651,22.59925 -14.29116,50.9498 -13.06034,74.158c1.50433,28.41821 9.09437,56.97175 -8.41059,81.33022c18.94091,16.23898 30.83881,23.95249 11.62439,44.65719c-13.1971,-16.84794 -28.99259,-94.3214 -21.40255,-117.86792c1.43595,-4.60104 7.7268,-5.95429 8.61572,-10.01404c1.57271,-7.10455 -7.3849,-40.3268 -3.89759,-58.59565c10.66708,-56.83643 57.50652,-157.17978 108.44868,-187.5602zm557.83377,62.52007c-20.85552,-5.00702 -28.24042,-20.23106 -42.4632,-37.6203c23.59067,-3.7891 41.164,14.81807 42.4632,37.6203zm38.01858,68.33903c-0.06838,4.19507 -0.20514,8.39014 -0.27351,12.51755c-18.46226,-12.51755 -32.20639,-39.58251 -30.90719,-61.23448c27.62501,6.22494 28.65069,21.246 31.18071,48.71694zm78.22528,2.09753c4.1711,13.60014 8.27383,27.20029 12.44493,40.80043c-8.6841,14.68274 -17.43658,29.36549 -26.12068,44.04823c-13.74413,-14.95339 -20.85552,-61.77578 -24.95824,-84.84866c12.8552,0 25.77879,0 38.63399,0zm-827.38277,17.65989c-1.43595,0.94727 -2.87191,1.89455 -4.30786,2.84182c1.43595,1.35325 2.87191,2.63883 4.30786,3.99208c0.9573,0.94727 1.84623,1.82689 2.80353,2.77416c1.36757,1.55624 2.66677,3.04481 4.03435,4.60104c1.84623,-1.55624 3.62407,-3.04481 5.4703,-4.60104c-1.16244,-2.23286 -2.2565,-4.53338 -3.35056,-6.76624c-0.68379,-0.5413 -1.43595,-1.0826 -2.11974,-1.6239c-2.2565,-0.40597 -4.58138,-0.81195 -6.83787,-1.21792zm321.38009,21.51665c2.2565,5.95429 4.58138,11.90858 6.83787,17.79521c-2.2565,-5.88663 -4.58138,-11.84092 -6.83787,-17.79521zm444.46182,17.93054c25.23176,31.46302 17.64172,74.22566 6.83787,110.01908c-12.99196,-24.76444 -15.1117,-82.41282 -6.83787,-110.01908zm-129.91961,5.81897c-1.64109,1.6239 -3.28218,3.31546 -4.92327,4.93936c-0.61541,1.89455 -1.2992,3.7891 -1.9146,5.61598c-0.13676,0.40597 -0.20514,0.74429 -0.34189,1.15026c0.13676,0.13532 0.20514,0.27065 0.34189,0.40597c2.2565,1.15026 4.58138,2.36818 6.83787,3.58611c1.23082,-1.35325 2.46163,-2.63883 3.62407,-3.99208c-0.27351,-2.23286 -0.61541,-4.53338 -0.88892,-6.76624c-0.88892,-1.6239 -1.84623,-3.31546 -2.73515,-4.93936zm176.21202,27.20029c6.49598,3.85676 12.92358,7.71351 19.41956,11.57027c-6.49598,6.15728 -12.92358,12.31456 -19.41956,18.47184c0,-10.01404 0,-20.02807 0,-30.04211zm-415.53761,9.06676c-0.82054,0.81195 -1.70947,1.69156 -2.53001,2.50351c-0.13676,2.23286 -0.27351,4.53338 -0.34189,6.76624c0.9573,1.28559 1.9146,2.63883 2.87191,3.92442c2.2565,-1.28559 4.58138,-2.63883 6.83787,-3.92442c0,0 0,0 0,0c0,0 0,-0.06766 0,-0.06766c-0.20514,-2.23286 -0.41027,-4.46572 -0.68379,-6.69858c-2.05136,-0.81195 -4.10272,-1.69156 -6.15409,-2.50351zm54.70299,42.89797c-0.06838,0.06766 -0.13676,0.13532 -0.20514,0.20299c-2.18812,1.96221 -4.44462,3.92442 -6.63274,5.95429c-0.27351,0.27065 -0.54703,0.5413 -0.82054,0.81195c0.27351,0.27065 0.54703,0.5413 0.82054,0.81195c2.2565,1.0826 4.58138,2.1652 6.83787,3.2478c1.77785,-1.35325 3.48732,-2.7065 5.26516,-4.05974c-1.57271,-2.23286 -3.14542,-4.53338 -4.71813,-6.76624c-0.20514,-0.06766 -0.34189,-0.13532 -0.54703,-0.20299zm389.75883,-3.31546c19.82984,27.33561 4.37624,75.10528 -3.48732,105.35037c-10.53033,40.25913 -17.16306,91.41192 -43.14699,126.32572c-6.70112,8.93144 -16.75279,14.54742 -23.59067,23.61418c-9.43627,12.44988 -16.47928,36.74069 -29.33448,45.46914c-7.7268,5.27767 -17.43658,2.57117 -23.7958,9.81105c-4.37624,5.07468 -3.76083,14.27677 -7.65842,20.02807c-18.3255,26.86198 -54.49786,24.96743 -66.12224,58.59565c-23.24877,5.7513 -45.33511,10.96131 -68.17361,18.40418c-21.94958,7.17222 -42.59996,23.07288 -64.48115,30.65107c-18.59902,6.42793 -40.61697,3.45078 -59.76302,8.66079c-9.70978,2.57117 -18.73578,9.5404 -28.78745,10.48767c-15.59035,1.42091 -27.69339,-11.50261 -41.98455,-14.34443c-8.75248,-1.69156 -16.4109,2.7065 -25.02662,1.82689c-9.29951,-1.01494 -13.33385,-8.59313 -21.74444,-10.35235c-8.54734,-1.75922 -16.75279,1.82689 -25.98392,-0.27065c0,-15.02106 0,-30.04211 0,-45.06317c18.39388,1.35325 36.78776,8.11949 54.70299,9.47274c86.63587,6.56325 174.70768,-12.04391 251.2235,-54.46824c24.88986,-13.80313 43.28374,-40.73277 66.46414,-56.56578c18.18875,-12.44988 33.36883,-0.06766 51.28406,-15.42703c-2.66677,-6.90157 -10.5987,-16.3743 -10.12005,-24.35847c0.88892,-13.39716 50.94216,-90.05867 59.8314,-110.35739c5.88057,-13.46482 17.57334,-33.22224 19.76146,-47.22836c1.84623,-11.63793 -3.28218,-20.50171 1.16244,-33.01926c9.84654,-28.01224 4.78651,-51.82941 38.77075,-57.2424zm-499.16481,95.74231c-16.27414,-5.54832 -22.56498,9.06676 -32.06963,22.80223c15.79549,15.08872 16.13738,25.64405 36.78776,27.06496c-20.17173,-18.06586 -13.81251,-29.23016 -4.71813,-49.8672zm379.77553,101.83193c-4.37624,-2.43585 -8.6841,-4.80403 -13.06034,-7.23988c16.95793,-32.95159 33.98423,-65.90319 50.94216,-98.85478c16.47928,27.74159 -16.00063,84.03671 -37.88182,106.09466zm-540.87585,73.54904c-1.43595,1.01494 -2.87191,2.02987 -4.30786,3.04481c1.77785,3.31546 3.62407,6.63092 5.40192,9.94637c-18.25712,8.66079 -30.15503,-15.49469 -42.87347,-29.02717c-34.32613,-36.67303 -58.5322,-77.13515 -76.99446,-123.01026c35.21505,-4.60104 39.86481,27.60626 40.54859,56.49811c3.82921,-0.27065 2.59839,-3.38312 6.56436,-2.50351c6.70112,1.55624 16.47928,18.94548 20.582,24.29081c16.13738,20.97535 33.30045,41.61238 51.07892,60.76084zm411.16137,39.04121c3.28218,-0.13532 6.49598,-0.27065 9.77816,-0.40597c1.16244,-3.31546 2.2565,-6.69858 3.41894,-10.01404c23.52229,-19.0808 49.09594,-54.73889 77.67825,-59.4076c-4.513,27.80925 -43.28374,69.08332 -72.27633,80.04463c-11.00898,4.12741 -19.82984,1.82689 -29.19772,7.57819c-18.53064,11.43495 -24.1377,38.49991 -48.00188,18.87781c-12.23979,21.04301 -37.06128,30.98938 -57.23301,15.2917c12.23979,-22.53158 29.81313,-13.19417 52.58325,-21.38132c21.12903,-7.51053 41.84779,-22.12561 63.25034,-30.58341zm-377.04038,-4.66871c3.41894,3.11247 6.7695,6.15728 10.12005,9.26975c-5.81219,-0.87961 -11.62439,-1.75922 -17.43658,-2.7065c2.46163,-2.1652 4.92327,-4.33039 7.31653,-6.56325zm48.34377,32.81627c-21.19741,-1.21792 -27.48825,-4.66871 -36.10398,-23.54652c19.76146,0.5413 29.53962,4.53338 36.10398,23.54652zm0,0c21.94958,-8.32248 64.13926,-1.89455 63.25034,23.81717c-23.7958,1.69156 -50.80541,-2.02987 -63.25034,-23.81717zm123.90228,23.81717c-5.94895,2.63883 -11.96628,5.21001 -17.91523,7.84884c-0.75217,-4.87169 -1.50433,-9.74339 -2.2565,-14.61508c6.70112,2.23286 13.47061,4.53338 20.17173,6.76624zm79.93475,6.76624c-19.14605,6.49559 -46.15565,17.59223 -56.82273,-3.51845c19.48794,-8.86378 40.89049,-12.85586 56.82273,3.51845zm-200.41809,37.48498c17.50496,5.68364 11.8979,1.15026 13.67575,17.59223c-12.23979,-7.78118 -11.55601,-4.66871 -13.67575,-17.59223z"/>
 </g>
</svg>