<svg width="1024" height="1024" xmlns="http://www.w3.org/2000/svg">

 <g>
  <title>Layer 1</title>
  <ellipse ry="246" rx="246" id="svg_9" cy="512" cx="512" stroke-width="0.25" stroke="#242f4b" fill="#ffffff"/>
  <path stroke="#242f4b" id="svg_3" stroke-linejoin="round" stroke-width="0.25" fill-rule="evenodd" fill="#ce0202" d="m529.0615,306.71885c10.74479,-8.46515 14.94098,-2.50467 26.09904,0.31705c23.77841,6.0556 38.1154,2.31444 53.18354,24.69795c7.05723,-10.77959 26.13082,7.76765 32.04364,14.2354c22.88831,25.20523 51.05365,51.04455 62.49781,84.04913c-7.08902,1.74376 -14.14625,3.45581 -21.23527,5.19957c-8.07449,-10.96982 -10.45869,-25.39546 -17.96097,-36.39698c-2.95641,-4.34354 -10.96732,-7.70424 -11.63489,-13.63302c-0.41326,-3.89968 2.16167,-5.99219 4.03724,-9.06754c-10.55406,-4.56548 -12.52499,-13.25256 -22.12537,-4.0899c-23.238,-29.58047 -79.44152,-51.55182 -117.6205,-50.82261c-4.60945,0.09511 -8.29701,2.28274 -12.77931,2.47297c-6.70755,0.28534 -11.88921,-1.80717 -18.91465,0.09511c-14.5913,3.89968 -29.69123,7.51401 -44.09179,13.18915c-8.9328,3.55093 -14.55951,9.70163 -22.76116,5.58003c-5.53134,13.06233 -17.70665,17.40587 -27.21166,27.0758c-19.74117,20.13248 -38.75119,44.83043 -49.46419,71.11362c-5.40419,13.15745 -9.12354,43.08667 -19.39149,49.52272c9.25069,7.03844 8.29701,29.45366 9.05996,41.21609c1.20799,17.94485 8.67849,39.69427 16.24434,56.30753c14.55951,32.05344 36.14446,57.19526 64.46875,78.4374c8.86922,6.68969 19.26433,10.20891 27.65671,17.43758c-2.54315,8.24322 -4.41872,12.52335 -11.82563,17.05712c-28.06997,-16.10598 -46.7621,-27.17092 -67.96558,-52.31274c-2.41599,-2.85342 -6.10355,-4.59718 -7.97912,-7.95788c-1.68483,-3.04365 -1.27157,-6.81651 -3.01999,-9.70163c-7.85196,-12.8721 -32.58406,-23.58829 -14.52772,-42.19894c-21.07632,-3.3607 -7.85196,-8.43345 -11.44416,-20.70316c-1.97094,-6.7531 -8.74206,-7.67253 -11.921,-13.47449c-3.84651,-7.07015 -1.55768,-15.09143 -2.86104,-22.73226c-3.84651,-22.44692 0.25431,-32.81435 3.11535,-54.15161c0.76294,-5.96048 -0.95368,-12.68188 1.04905,-18.42042c1.7802,-5.07275 7.69302,-7.60913 8.77385,-13.44279c0.98547,-5.19957 -0.604,-10.20891 0.38147,-15.44018c2.32062,-12.1746 19.3597,-38.67972 28.22892,-48.06431c3.2743,-3.48752 27.17987,-26.98069 29.24618,-27.86842c2.9882,-1.29989 7.56586,-0.50728 10.74479,-0.31705c-0.92189,-23.6834 14.24162,-4.31184 24.79567,-25.36375c12.90647,-0.6975 15.99003,-14.26711 29.27797,-6.68969c0.98547,-4.43866 1.08084,-9.22606 4.67303,-12.49165c5.97639,-5.45321 12.97004,-1.3316 19.39149,-3.10706c16.53045,-4.56548 48.70124,-14.42563 61.76666,0.44387zm38.14719,10.65278c-0.44505,0.57068 -0.8901,1.10966 -1.33515,1.68035c0.09537,1.04625 0.15895,2.12421 0.25431,3.17047c0.34968,0.76091 0.73115,1.49012 1.08084,2.25103c0.54042,-0.76091 1.08084,-1.49012 1.62126,-2.25103c0.54042,-0.88773 1.04905,-1.77546 1.55768,-2.66319c0.09537,-0.15852 0.19074,-0.34875 0.2861,-0.50728c-0.09537,-0.19023 -0.19074,-0.38046 -0.2861,-0.60239c-1.04905,-0.34875 -2.12988,-0.72921 -3.17893,-1.07796zm-68.34705,16.86689c9.85469,-1.49012 23.11084,-3.29729 32.87016,-0.38046c2.79746,0.85603 4.83198,4.0265 7.66123,4.50207c3.17893,0.53898 5.59492,-1.87058 8.83743,-1.93399c9.05996,-0.12682 17.07087,5.00934 22.66579,11.16005c-3.11535,1.90228 -1.97094,3.29729 -6.13534,3.70945c-5.9446,0.63409 -14.8774,-5.86537 -20.79022,-7.16526c-12.36605,-2.7266 -25.87651,-3.07535 -38.4015,-4.53377c-1.71662,-0.53898 -3.40146,-1.07796 -5.11808,-1.61694c-0.54042,-1.26819 -1.04905,-2.50467 -1.58947,-3.74115zm-15.86287,2.63149c0,1.61694 -0.03179,3.26558 -0.03179,4.91423c-18.97823,6.91162 -37.95645,13.82324 -56.90289,20.73487c-2.12988,-0.22193 -4.25977,-0.44387 -6.35786,-0.63409c15.38603,-14.39393 42.18443,-25.14182 63.29254,-25.015zm111.45337,24.82477c-10.74479,-1.3316 -14.40056,-3.48752 -15.4814,-14.10859c10.23616,0.50728 14.84561,3.86797 15.4814,14.10859zm0,0c3.62398,-0.85603 7.27976,-1.74376 10.90374,-2.63149c8.80564,8.84561 17.5795,17.72292 26.38514,26.56853c-1.55768,0.28534 -2.51136,2.50467 -4.10082,2.44126c-3.24251,-0.15852 -30.64491,-22.60544 -33.18805,-26.3783zm-155.64053,250.9109c-1.87557,-1.14137 -3.78293,-2.31444 -5.69029,-3.45581c7.59765,-26.94898 15.1953,-53.89797 22.79295,-80.84695c-16.84834,-16.51814 -34.8411,-31.60957 -52.48417,-47.46192c-7.59765,-6.84821 -17.13445,-8.84561 -17.42055,-19.94225c5.40419,0.06341 10.74479,2.0291 15.92645,1.9974c13.51046,-0.06341 30.93101,-9.82845 41.29433,2.91683c6.67576,-10.08209 23.238,-6.97503 34.96826,-8.30663c14.65488,-26.28319 16.11719,-62.93381 34.96826,-86.10993c11.66668,28.47081 23.30157,56.94162 34.96826,85.41243c6.77113,0.76091 14.81383,-0.22193 21.39422,1.39501c2.57494,0.63409 4.41872,3.3607 7.08902,3.45581c1.93915,0.06341 4.1644,-2.15592 6.51681,-2.18762c3.78293,0 6.58039,2.66319 10.04543,2.91683c9.15533,0.6975 12.97004,-2.53638 21.71211,3.13876c9.5368,-6.15071 18.18349,-7.26037 27.94282,-0.63409c-23.87378,21.14703 -47.74757,42.26235 -71.62135,63.40938c4.73661,19.97395 24.19168,74.09386 21.426,90.19984c-9.15533,-2.44126 -13.7012,-8.1481 -21.426,-13.44279c-18.1517,-12.39653 -52.22986,-22.16158 -58.04731,-45.306c-0.44505,2.34615 -0.54042,7.29208 -1.93915,9.13095c-2.19346,2.91683 -5.91281,2.47297 -8.86922,4.12161c-9.69574,5.3898 -18.08813,14.33052 -27.62492,20.2593c-4.70482,2.91683 -10.29974,3.89968 -14.90919,7.00674c-7.72481,5.26298 -11.47595,10.33573 -21.01274,12.33312zm-45.10905,-229.12978c1.84378,1.23648 3.71935,2.50467 5.59492,3.74115c-17.89739,24.3175 -37.2253,46.95464 -43.67853,77.7399c-2.22525,10.58937 -6.64397,23.87363 -6.07176,34.74834c0.69937,13.31597 4.22798,26.69535 -3.91009,38.10904c8.80564,7.60913 14.33699,11.22346 5.40419,20.92509c-6.13534,-7.89447 -13.47867,-44.19634 -9.95006,-55.22957c0.66758,-2.15592 3.59219,-2.79001 4.00545,-4.69229c0.73115,-3.32899 -3.43325,-18.89599 -1.81199,-27.45626c4.95913,-26.63194 26.73482,-73.64999 50.41787,-87.8854zm259.33731,29.29513c-9.69574,-2.34615 -13.12899,-9.4797 -19.74117,-17.62781c10.96732,-1.77546 19.13717,6.94333 19.74117,17.62781zm17.67486,32.02173c-0.03179,1.96569 -0.09537,3.93138 -0.12716,5.86537c-8.58312,-5.86537 -14.97277,-18.54724 -14.36877,-28.69274c12.84289,2.91683 13.31973,9.95527 14.49593,22.82738zm36.36699,0.98285c1.93915,6.37264 3.84651,12.74528 5.78566,19.11793c-4.03724,6.87992 -8.10628,13.75983 -12.14352,20.63975c-6.38965,-7.00674 -9.69574,-28.94638 -11.6031,-39.75768c5.97639,0 11.98458,0 17.96097,0zm-384.65082,8.27492c-0.66758,0.44387 -1.33515,0.88773 -2.00273,1.3316c0.66758,0.63409 1.33515,1.23648 2.00273,1.87058c0.44505,0.44387 0.85831,0.85603 1.30336,1.29989c0.63579,0.72921 1.23978,1.42671 1.87557,2.15592c0.85831,-0.72921 1.68483,-1.42671 2.54315,-2.15592c-0.54042,-1.04625 -1.04905,-2.12421 -1.55768,-3.17047c-0.31789,-0.25364 -0.66758,-0.50728 -0.98547,-0.76091c-1.04905,-0.19023 -2.12988,-0.38046 -3.17893,-0.57068zm149.40982,10.08209c1.04905,2.79001 2.12988,5.58003 3.17893,8.33833c-1.04905,-2.75831 -2.12988,-5.54832 -3.17893,-8.33833zm206.63061,8.40174c11.73026,14.74268 8.20165,34.78004 3.17893,51.55182c-6.03997,-11.60392 -7.02544,-38.61631 -3.17893,-51.55182zm-60.39972,2.7266c-0.76294,0.76091 -1.52589,1.55353 -2.28883,2.31444c-0.2861,0.88773 -0.604,1.77546 -0.8901,2.63149c-0.06358,0.19023 -0.09537,0.34875 -0.15895,0.53898c0.06358,0.06341 0.09537,0.12682 0.15895,0.19023c1.04905,0.53898 2.12988,1.10966 3.17893,1.68035c0.57221,-0.63409 1.14442,-1.23648 1.68483,-1.87058c-0.12716,-1.04625 -0.2861,-2.12421 -0.41326,-3.17047c-0.41326,-0.76091 -0.85831,-1.55353 -1.27157,-2.31444zm81.92109,12.74528c3.01999,1.80717 6.00818,3.61433 9.02817,5.4215c-3.01999,2.88513 -6.00818,5.77025 -9.02817,8.65538c0,-4.69229 0,-9.38459 0,-14.07688zm-193.18372,4.24843c-0.38147,0.38046 -0.79473,0.79262 -1.1762,1.17307c-0.06358,1.04625 -0.12716,2.12421 -0.15895,3.17047c0.44505,0.60239 0.8901,1.23648 1.33515,1.83887c1.04905,-0.60239 2.12988,-1.23648 3.17893,-1.83887c0,0 0,0 0,0c0,0 0,-0.0317 0,-0.0317c-0.09537,-1.04625 -0.19074,-2.09251 -0.31789,-3.13876c-0.95368,-0.38046 -1.90736,-0.79262 -2.86104,-1.17307zm25.43146,20.10077c-0.03179,0.0317 -0.06358,0.06341 -0.09537,0.09511c-1.01726,0.91944 -2.06631,1.83887 -3.08356,2.79001c-0.12716,0.12682 -0.25431,0.25364 -0.38147,0.38046c0.12716,0.12682 0.25431,0.25364 0.38147,0.38046c1.04905,0.50728 2.12988,1.01455 3.17893,1.52183c0.82652,-0.63409 1.62126,-1.26819 2.44778,-1.90228c-0.73115,-1.04625 -1.46231,-2.12421 -2.19346,-3.17047c-0.09537,-0.0317 -0.15895,-0.06341 -0.25431,-0.09511zm181.19915,-1.55353c9.2189,12.80869 2.03452,35.1922 -1.62126,49.3642c-4.89556,18.86429 -7.97912,42.83303 -20.05906,59.19265c-3.11535,4.18502 -7.78838,6.81651 -10.96732,11.06494c-4.38693,5.83366 -7.66123,17.21565 -13.63762,21.30555c-3.59219,2.47297 -8.10628,1.20478 -11.06268,4.59718c-2.03452,2.37785 -1.74841,6.68969 -3.5604,9.38459c-8.51954,12.58676 -25.33609,11.69903 -30.74028,27.45626c-10.80837,2.6949 -21.07632,5.13616 -31.69396,8.62368c-10.20437,3.3607 -19.80475,10.8113 -29.97733,14.36222c-8.6467,3.01195 -18.88286,1.61694 -27.78387,4.0582c-4.51408,1.20478 -8.71027,4.47036 -13.38331,4.91423c-7.24797,0.6658 -12.87468,-5.3898 -19.51865,-6.72139c-4.06903,-0.79262 -7.62944,1.26819 -11.63489,0.85603c-4.32335,-0.47557 -6.19892,-4.0265 -10.10901,-4.85082c-3.97367,-0.82432 -7.78838,0.85603 -12.07994,-0.12682c0,-7.03844 0,-14.07688 0,-21.11532c8.55133,0.63409 17.10266,3.80456 25.43146,4.43866c40.27707,3.07535 81.22172,-5.64343 116.79398,-25.52227c11.57131,-6.46776 20.12264,-19.08622 30.89922,-26.50512c8.45596,-5.83366 15.51319,-0.0317 23.84199,-7.22867c-1.23978,-3.23388 -4.92735,-7.67253 -4.70482,-11.41369c0.41326,-6.27753 23.68305,-42.19894 27.81566,-51.71035c2.73388,-6.30923 8.16986,-15.567 9.18711,-22.12987c0.85831,-5.45321 -1.52589,-9.60652 0.54042,-15.47189c4.57766,-13.12574 2.22525,-24.28579 18.02455,-26.82217zm-232.06207,44.86213c-7.56586,-2.59978 -10.49048,4.24843 -14.90919,10.68448c7.34333,7.07015 7.50228,12.01608 17.10266,12.68188c-9.37785,-8.46515 -6.42144,-13.69643 -2.19346,-23.36636zm176.55791,47.71556c-2.03452,-1.14137 -4.03724,-2.25103 -6.07176,-3.3924c7.88375,-15.44018 15.79929,-30.88037 23.68305,-46.32055c7.66123,12.99892 -7.4387,39.37722 -17.61129,49.71295zm-251.45356,34.463c-0.66758,0.47557 -1.33515,0.95114 -2.00273,1.42671c0.82652,1.55353 1.68483,3.10706 2.51136,4.66059c-8.48775,4.0582 -14.01909,-7.26037 -19.93191,-13.60131c-15.95824,-17.18394 -27.21166,-36.14334 -35.79478,-57.63912c16.3715,-2.15592 18.53318,12.93551 18.85107,26.47341c1.7802,-0.12682 1.20799,-1.58523 3.05178,-1.17307c3.11535,0.72921 7.66123,8.87731 9.56859,11.38198c7.50228,9.82845 15.4814,19.49838 23.74663,28.47081zm191.14921,18.29361c1.52589,-0.06341 3.01999,-0.12682 4.54587,-0.19023c0.54042,-1.55353 1.04905,-3.13876 1.58947,-4.69229c10.93553,-8.94072 22.82473,-25.64909 36.11267,-27.83672c-2.0981,13.03063 -20.12264,32.37049 -33.60132,37.50665c-5.11808,1.93399 -9.2189,0.85603 -13.57404,3.55093c-8.61491,5.35809 -11.22163,18.03997 -22.31611,8.84561c-5.69029,9.86016 -17.22981,14.52075 -26.60766,7.16526c5.69029,-10.55766 13.86015,-6.18241 24.44599,-10.01868c9.8229,-3.51922 19.45507,-10.36743 29.40512,-14.33052zm-175.28633,-2.18762c1.58947,1.45842 3.14714,2.88513 4.70482,4.34354c-2.70209,-0.41216 -5.40419,-0.82432 -8.10628,-1.26819c1.14442,-1.01455 2.28883,-2.0291 3.40146,-3.07535zm22.47505,15.37677c-9.85469,-0.57068 -12.77931,-2.18762 -16.78476,-11.03323c9.18711,0.25364 13.73299,2.12421 16.78476,11.03323zm0,0c10.20437,-3.89968 29.81839,-0.88773 29.40512,11.16005c-11.06268,0.79262 -23.61947,-0.95114 -29.40512,-11.16005zm57.60226,11.16005c-2.76567,1.23648 -5.56313,2.44126 -8.3288,3.67774c-0.34968,-2.28274 -0.69937,-4.56548 -1.04905,-6.84821c3.11535,1.04625 6.2625,2.12421 9.37785,3.17047zm37.16172,3.17047c-8.90101,3.04365 -21.45779,8.24322 -26.41693,-1.64864c9.05996,-4.15331 19.01002,-6.02389 26.41693,1.64864zm-93.17451,17.5644c8.13807,2.66319 5.53134,0.53898 6.35786,8.24322c-5.69029,-3.64604 -5.3724,-2.18762 -6.35786,-8.24322z"/>
 </g>
</svg>